# xmcd
#
# Track frame offsets:
#	150
#	18136
#	32205
#	47095
#	60024
#	80368
#	97780
#	117619
#	139690
#	155820
#	171153
#	196817
#	216076
#	231007
#	241559
#	279839
#	291175
#	315839
#	339964
#
# Disc length: 4796 seconds
#
# Revision: 1
# Processed by: cddbd v1.5.2PL0 Copyright (c) Steve Scherf et al.
# Submitted via: EasyCDDAExtractor 10.0.6.1
#
DISCID=ee12ba13
DTITLE=Various Artist - Repertório 1
DYEAR=2009
DGENRE=Rock and Roll
TTITLE0=Doro - Now Or Never
TTITLE1=Doro - Always Live To Win
TTITLE2=Warlock - All We Are
TTITLE3=Doro - Burn It Up
TTITLE4=Warlock - Burning The Witches
TTITLE5=Warlock - Metal Racer
TTITLE6=Warlock - Metal Tango
TTITLE7=Warlock - Out Of Control
TTITLE8=Warlock - True As Steel
TTITLE9=Pink Floyd - In The Flesh
TTITLE10=Led Zeppelin - The Rover
TTITLE11=Cream - Sunshine Of Your Love
TTITLE12=David Bowie - Ziggy Stardust
TTITLE13=The Beatles - We Can Work It Out
TTITLE14=War Pigs - Black Sabbath - War Pigs
TTITLE15=Led Zeppelin - Immigrant Song
TTITLE16=Kansas - Carry On Wayward Son
TTITLE17=Deep Purple - Pererct Strangers
TTITLE18=Kiko Loureiro - Nogravity Playback
EXTD=
EXTT0=
EXTT1=
EXTT2=
EXTT3=
EXTT4=
EXTT5=
EXTT6=
EXTT7=
EXTT8=
EXTT9=
EXTT10=
EXTT11=
EXTT12=
EXTT13=
EXTT14=
EXTT15=
EXTT16=
EXTT17=
EXTT18=
PLAYORDER=
